<svg width="100" height="22" viewBox="0 0 100 22" fill="none" xmlns="http://www.w3.org/2000/svg">
<g clip-path="url(#clip0_121_104)">
<path d="M31.6917 16.9797C30.1417 16.9797 29.3583 16.326 28.8917 15.3371V16.7618H26.7083V4.52563H28.9583V9.38659C29.425 8.46468 30.2083 7.86125 31.6917 7.86125C34.075 7.86125 35.975 9.92297 35.975 12.4373C35.975 14.9515 34.075 16.9797 31.6917 16.9797ZM28.8917 12.4373C28.8917 13.795 29.8417 14.9348 31.325 14.9348C32.7583 14.9348 33.725 13.7447 33.725 12.4205C33.725 11.0628 32.7583 9.90621 31.325 9.90621C29.8417 9.90621 28.8917 11.0795 28.8917 12.4373ZM41.0472 16.9797C38.3639 16.9797 36.5639 14.9348 36.5639 12.4205C36.5639 9.90621 38.4472 7.82773 41.0472 7.82773C43.6472 7.82773 45.4472 9.90621 45.4472 12.4205C45.4472 12.6719 45.4305 12.9401 45.3805 13.2251H38.8972C39.1472 14.2475 39.9139 14.9683 41.0472 14.9683C42.0139 14.9683 42.7639 14.4654 43.1639 13.795L44.9139 15.1192C44.2139 16.2087 42.7639 16.9797 41.0472 16.9797ZM38.8972 11.5321H43.1805C42.9305 10.5599 42.1139 9.77211 41.0139 9.77211C39.9472 9.77211 39.1472 10.4929 38.8972 11.5321ZM46.4349 16.7618V8.04563H48.6182V9.70506C48.9182 8.44792 49.8016 7.76068 51.3016 7.84449V9.97325H50.9849C49.6849 9.97325 48.6849 10.8449 48.6849 12.3032V16.7618H46.4349ZM52.0501 16.7618V8.04563H54.2334V9.70506C54.5334 8.44792 55.4168 7.76068 56.9168 7.84449V9.97325H56.6001C55.3001 9.97325 54.3001 10.8449 54.3001 12.3032V16.7618H52.0501ZM58.7603 20.2651C58.3103 20.2651 57.7103 20.2315 57.2603 20.0974L57.5936 17.9352C57.927 18.019 58.2436 18.0525 58.6103 18.0525C59.477 18.0525 60.027 17.4994 60.277 16.7283L60.3936 16.3595L56.9603 8.04563H59.677L61.3603 13.0239C61.5103 13.443 61.6436 13.9626 61.727 14.4152C61.8103 13.9626 61.9436 13.443 62.0936 13.0239L63.777 8.04563H66.4436L62.6103 17.315C61.877 19.075 60.7936 20.2651 58.7603 20.2651ZM71.8447 16.9797C70.2947 16.9797 69.5113 16.326 69.0447 15.3371V16.7618H66.8614V4.52563H69.1114V9.38659C69.578 8.46468 70.3614 7.86125 71.8447 7.86125C74.228 7.86125 76.128 9.92297 76.128 12.4373C76.128 14.9515 74.228 16.9797 71.8447 16.9797ZM69.0447 12.4373C69.0447 13.795 69.9947 14.9348 71.478 14.9348C72.9113 14.9348 73.878 13.7447 73.878 12.4205C73.878 11.0628 72.9113 9.90621 71.478 9.90621C69.9947 9.90621 69.0447 11.0795 69.0447 12.4373ZM77.4941 20.2651C77.044 20.2651 76.4441 20.2315 75.9941 20.0974L76.3274 17.9352C76.6607 18.019 76.9774 18.0525 77.3441 18.0525C78.2107 18.0525 78.7607 17.4994 79.0107 16.7283L79.1274 16.3595L75.694 8.04563H78.4107L80.0941 13.0239C80.2441 13.443 80.3774 13.9626 80.4607 14.4152C80.5441 13.9626 80.6774 13.443 80.8274 13.0239L82.5107 8.04563H85.1774L81.3441 17.315C80.6107 19.075 79.5274 20.2651 77.4941 20.2651ZM89.1225 16.7618C87.4058 16.7618 86.4725 15.9573 86.4725 14.0632V9.97325H85.2558V8.04563H86.4725V6.28563L88.7225 6.05097V8.04563H90.5558V9.97325H88.7225V13.9458C88.7225 14.499 88.9892 14.7504 89.4225 14.7504H90.3558V16.7618H89.1225ZM95.2301 16.9797C92.5468 16.9797 90.7468 14.9348 90.7468 12.4205C90.7468 9.90621 92.6301 7.82773 95.2301 7.82773C97.8301 7.82773 99.6301 9.90621 99.6301 12.4205C99.6301 12.6719 99.6134 12.9401 99.5634 13.2251H93.0801C93.3301 14.2475 94.0968 14.9683 95.2301 14.9683C96.1968 14.9683 96.9468 14.4654 97.3468 13.795L99.0968 15.1192C98.3968 16.2087 96.9468 16.9797 95.2301 16.9797ZM93.0801 11.5321H97.3634C97.1134 10.5599 96.2968 9.77211 95.1968 9.77211C94.1301 9.77211 93.3301 10.4929 93.0801 11.5321Z" fill="white"/>
<path d="M0 10.9999C0 5.10893 4.74399 0.333252 10.596 0.333252C16.4481 0.333252 21.1921 5.10893 21.1921 10.9999C21.1921 16.8909 16.4481 21.6666 10.596 21.6666C4.74399 21.6666 0 16.8909 0 10.9999Z" fill="url(#paint0_linear_121_104)"/>
<path fill-rule="evenodd" clip-rule="evenodd" d="M10.3031 10.0746C9.83042 10.6444 9.6344 11.6069 9.6305 13.3779C9.62813 14.4275 9.67635 15.1173 9.77223 15.4068C10.0018 16.0998 10.6793 17.5454 10.7746 17.5454C10.9355 17.5454 11.435 16.5541 11.6988 15.7115C12.0333 14.6426 12.1211 13.4726 11.9591 12.239C11.682 10.1283 10.999 9.23554 10.3031 10.0746ZM4.65622 13.7431C4.51201 13.9664 4.51007 14.0623 4.6412 14.5044C5.0039 15.7268 6.78128 17.7683 8.04763 18.4167C9.26168 19.0385 10.2215 19.3392 10.2215 19.0981C10.2215 18.8751 9.76891 17.7019 9.44263 17.0795C8.81659 15.885 7.20126 14.3432 5.95134 13.7474C5.25287 13.4144 4.86931 13.4131 4.65622 13.7431ZM15.5728 13.7994C14.6664 14.2349 13.3594 15.3352 12.7136 16.2067C11.9125 17.2874 11.1656 19.1905 11.5423 19.1905C11.8184 19.1905 12.9051 18.7749 13.5712 18.4149C15.5785 17.3295 17.7553 14.1072 16.8232 13.6011C16.5009 13.4261 16.2751 13.4618 15.5728 13.7994Z" fill="white"/>
</g>
<defs>
<linearGradient id="paint0_linear_121_104" x1="10.596" y1="0.333252" x2="10.596" y2="21.6666" gradientUnits="userSpaceOnUse">
<stop stop-color="#FF5284"/>
<stop offset="1" stop-color="#FF195B"/>
</linearGradient>
<clipPath id="clip0_121_104">
<rect width="100" height="22" fill="white"/>
</clipPath>
</defs>
</svg>
