<svg height="35" viewBox="0 0 340 60" fill="none" xmlns="http://www.w3.org/2000/svg"><rect y="22.5" width="15.75" height="37.5" fill="#FFFFFF"></rect><rect x="44.25" width="15.75" height="39" fill="#FFFFFF"></rect><rect x="21.75" y="22.5" width="16.5" height="16.5" fill="#CB2A3D"></rect><rect x="44.25" y="44.25" width="15.75" height="15.75" fill="#CB2A3D"></rect><rect width="15.75" height="15.75" fill="#CB2A3D"></rect><rect y="44.25" width="37.5" height="15.75" fill="#FFFFFF"></rect><rect x="22.5" width="37.5" height="15.75" fill="#FFFFFF"></rect><path d="M89.2 39.32C90.72 39.32 92.0467 39.1133 93.18 38.7C94.3267 38.2733 95.16 37.8533 95.68 37.44L97.48 41.04C96.88 41.5733 95.8333 42.1133 94.34 42.66C92.8467 43.2067 91.06 43.48 88.98 43.48C87.0333 43.48 85.22 43.1333 83.54 42.44C81.86 41.7467 80.3867 40.7867 79.12 39.56C77.8533 38.32 76.8667 36.8733 76.16 35.22C75.4533 33.5667 75.1 31.7733 75.1 29.84C75.1 27.9067 75.4533 26.1067 76.16 24.44C76.8667 22.7733 77.8467 21.32 79.1 20.08C80.3667 18.84 81.84 17.8733 83.52 17.18C85.2133 16.4733 87.0333 16.12 88.98 16.12C91.06 16.12 92.8467 16.3933 94.34 16.94C95.8333 17.4867 96.88 18.0267 97.48 18.56L95.68 22.16C95.16 21.7467 94.3267 21.3333 93.18 20.92C92.0467 20.4933 90.72 20.28 89.2 20.28C87.76 20.28 86.4533 20.52 85.28 21C84.1067 21.48 83.1 22.1533 82.26 23.02C81.42 23.8867 80.7733 24.9 80.32 26.06C79.8667 27.2067 79.64 28.4467 79.64 29.78C79.64 31.1267 79.8667 32.38 80.32 33.54C80.7733 34.7 81.42 35.7133 82.26 36.58C83.1 37.4467 84.1067 38.12 85.28 38.6C86.4533 39.08 87.76 39.32 89.2 39.32ZM105.43 16.6H115.13C116.583 16.6 117.896 16.9067 119.07 17.52C120.256 18.12 121.196 19 121.89 20.16C122.583 21.32 122.93 22.7267 122.93 24.38C122.93 26.02 122.616 27.3733 121.99 28.44C121.363 29.5067 120.61 30.3067 119.73 30.84C118.85 31.3733 118.03 31.6733 117.27 31.74L123.77 43H119.03L113.03 32.06H109.63V43H105.43V16.6ZM109.63 29.02H113.63C115.043 29.02 116.23 28.6667 117.19 27.96C118.15 27.2533 118.63 26.1 118.63 24.5C118.63 22.8867 118.156 21.74 117.21 21.06C116.263 20.38 115.083 20.04 113.67 20.04H109.63V29.02ZM148.207 16.6H152.407V32.94C152.407 35.1133 151.974 36.9933 151.107 38.58C150.254 40.1533 149.06 41.3667 147.527 42.22C145.994 43.06 144.207 43.48 142.167 43.48C140.14 43.48 138.354 43.06 136.807 42.22C135.26 41.3667 134.054 40.1533 133.187 38.58C132.32 36.9933 131.887 35.1133 131.887 32.94V16.6H136.087V32.72C136.087 34.16 136.347 35.3933 136.867 36.42C137.4 37.4467 138.12 38.2333 139.027 38.78C139.947 39.3267 140.994 39.6 142.167 39.6C143.34 39.6 144.38 39.3267 145.287 38.78C146.194 38.2333 146.907 37.4467 147.427 36.42C147.947 35.3933 148.207 34.16 148.207 32.72V16.6ZM165.085 20.54L165.365 20.58V43H161.165V16.6H167.025L179.785 39L179.525 39.06V16.6H183.705V43H177.825L165.085 20.54ZM206.02 39.32C207.54 39.32 208.867 39.1133 210 38.7C211.147 38.2733 211.98 37.8533 212.5 37.44L214.3 41.04C213.7 41.5733 212.654 42.1133 211.16 42.66C209.667 43.2067 207.88 43.48 205.8 43.48C203.854 43.48 202.04 43.1333 200.36 42.44C198.68 41.7467 197.207 40.7867 195.94 39.56C194.674 38.32 193.687 36.8733 192.98 35.22C192.274 33.5667 191.92 31.7733 191.92 29.84C191.92 27.9067 192.274 26.1067 192.98 24.44C193.687 22.7733 194.667 21.32 195.92 20.08C197.187 18.84 198.66 17.8733 200.34 17.18C202.034 16.4733 203.854 16.12 205.8 16.12C207.88 16.12 209.667 16.3933 211.16 16.94C212.654 17.4867 213.7 18.0267 214.3 18.56L212.5 22.16C211.98 21.7467 211.147 21.3333 210 20.92C208.867 20.4933 207.54 20.28 206.02 20.28C204.58 20.28 203.274 20.52 202.1 21C200.927 21.48 199.92 22.1533 199.08 23.02C198.24 23.8867 197.594 24.9 197.14 26.06C196.687 27.2067 196.46 28.4467 196.46 29.78C196.46 31.1267 196.687 32.38 197.14 33.54C197.594 34.7 198.24 35.7133 199.08 36.58C199.92 37.4467 200.927 38.12 202.1 38.6C203.274 39.08 204.58 39.32 206.02 39.32ZM238.05 31.64H226.47V43H222.29V16.6H226.47V27.9H238.05V16.6H242.21V43H238.05V31.64Z" fill="white"></path><path d="M250.849 16.6H261.089C262.636 16.6 264.062 16.82 265.369 17.26C266.676 17.6867 267.722 18.38 268.509 19.34C269.309 20.2867 269.709 21.5467 269.709 23.12C269.709 24.12 269.522 25.0133 269.149 25.8C268.789 26.5733 268.282 27.2133 267.629 27.72C266.989 28.2267 266.249 28.5867 265.409 28.8C266.182 28.9067 266.889 29.12 267.529 29.44C268.169 29.7467 268.722 30.1667 269.189 30.7C269.669 31.2333 270.036 31.8933 270.289 32.68C270.556 33.4667 270.689 34.3867 270.689 35.44C270.689 36.9467 270.329 38.2667 269.609 39.4C268.902 40.5333 267.889 41.42 266.569 42.06C265.262 42.6867 263.696 43 261.869 43H250.849V16.6ZM258.609 36.88H259.689C260.262 36.88 260.756 36.82 261.169 36.7C261.596 36.5667 261.922 36.34 262.149 36.02C262.389 35.6867 262.509 35.2267 262.509 34.64C262.509 33.76 262.256 33.1867 261.749 32.92C261.242 32.64 260.556 32.5 259.689 32.5H258.609V36.88ZM258.609 26.52H259.649C260.142 26.52 260.562 26.4667 260.909 26.36C261.269 26.24 261.542 26.0333 261.729 25.74C261.929 25.4467 262.029 25.0467 262.029 24.54C262.029 23.7667 261.816 23.2733 261.389 23.06C260.976 22.8333 260.396 22.72 259.649 22.72H258.609V26.52ZM277.815 16.6H285.555V43H277.815V16.6ZM297.718 23.32H292.018V16.6H311.158V23.32H305.458V43H297.718V23.32ZM328.599 16.12C330.305 16.12 331.819 16.3067 333.139 16.68C334.472 17.04 335.545 17.4267 336.359 17.84C337.185 18.2533 337.692 18.5333 337.879 18.68L334.219 24.88C334.005 24.72 333.632 24.5 333.099 24.22C332.579 23.9267 331.992 23.6667 331.339 23.44C330.685 23.2133 330.059 23.1 329.459 23.1C328.752 23.1 328.165 23.2 327.699 23.4C327.232 23.5867 326.999 23.9133 326.999 24.38C326.999 24.7 327.125 24.9933 327.379 25.26C327.632 25.5267 328.059 25.8 328.659 26.08C329.272 26.36 330.105 26.68 331.159 27.04C332.185 27.3733 333.125 27.7867 333.979 28.28C334.832 28.7733 335.565 29.36 336.179 30.04C336.805 30.72 337.292 31.5 337.639 32.38C337.985 33.26 338.159 34.2533 338.159 35.36C338.159 36.8267 337.852 38.08 337.239 39.12C336.639 40.1467 335.832 40.98 334.819 41.62C333.805 42.26 332.672 42.7267 331.419 43.02C330.179 43.3267 328.919 43.48 327.639 43.48C325.679 43.48 323.932 43.2667 322.399 42.84C320.879 42.4133 319.645 41.9533 318.699 41.46C317.765 40.9533 317.192 40.5933 316.979 40.38L320.759 33.92C320.905 34.04 321.219 34.2333 321.699 34.5C322.192 34.7667 322.779 35.0467 323.459 35.34C324.152 35.6333 324.865 35.8867 325.599 36.1C326.332 36.3 327.012 36.4 327.639 36.4C328.479 36.4 329.099 36.28 329.499 36.04C329.899 35.8 330.099 35.4533 330.099 35C330.099 34.68 329.972 34.38 329.719 34.1C329.479 33.82 329.039 33.5267 328.399 33.22C327.772 32.9 326.879 32.5333 325.719 32.12C324.599 31.7067 323.532 31.1667 322.519 30.5C321.505 29.8333 320.679 28.9667 320.039 27.9C319.399 26.8333 319.079 25.5 319.079 23.9C319.079 22.2733 319.532 20.88 320.439 19.72C321.345 18.56 322.525 17.6733 323.979 17.06C325.432 16.4333 326.972 16.12 328.599 16.12Z" fill="#CB2A3D"></path></svg>