<svg width="22" height="24" viewBox="0 0 22 24" fill="none" xmlns="http://www.w3.org/2000/svg">
<g clip-path="url(#clip0_330_290)">
<path opacity="0.5" fill-rule="evenodd" clip-rule="evenodd" d="M18.16 4.2H14.53L10.88 2.09L7.22 4.2H3.6L10.88 0L18.16 4.2ZM1 8.72L2.81 11.87V16.06L6.43 18.15L7.34 19.72L8.24 21.28L1 17.11V8.72ZM20.75 17.11V8.73L18.94 11.87V16.06L15.32 18.15L15.14 18.46L13.51 21.29L20.75 17.11Z" fill="#14B89F"/>
<path d="M7.64 5.12998H21.76C21.7 5.24998 21 6.46998 20.7 6.99998C20.6556 7.10654 20.5783 7.19609 20.4793 7.25548C20.3803 7.31487 20.2649 7.34098 20.15 7.32998H11.46C11.68 7.69998 11.84 8.01998 12.05 8.32998C12.05 8.40998 12.28 8.42998 12.41 8.42998H19.88L14.7 17.43C13.61 15.52 11.45 11.79 11.45 11.79H13.73C13.8178 11.7794 13.9066 11.7981 13.9826 11.8434C14.0586 11.8886 14.1175 11.9577 14.15 12.04C14.32 12.35 14.5 12.64 14.71 13.04C15.15 12.26 15.57 11.54 16.01 10.77H15.61H11.11C11.022 10.7804 10.933 10.764 10.8545 10.723C10.776 10.6819 10.7117 10.6181 10.67 10.54C10.43 10.11 7.67 5.24998 7.67 5.24998L7.64 5.12998ZM6.38 5.12998C6.38 5.12998 11.73 14.42 13.9 18.13C13.9628 18.2193 13.9966 18.3258 13.9966 18.435C13.9966 18.5442 13.9628 18.6507 13.9 18.74C12.9 20.37 10.9 23.96 10.9 23.96L0 5.12998H2.53L8 14.54C8.57 15.54 9.15 16.54 9.73 17.54L10.9 19.54C11.11 19.18 11.3 18.88 11.46 18.54C11.46 18.46 11.46 18.31 11.39 18.21C9.67 15.21 4.09 5.56998 3.81 5.09998L6.38 5.12998Z" fill="#14B89F"/>
</g>
<defs>
<clipPath id="clip0_330_290">
<rect width="21.76" height="24" fill="white"/>
</clipPath>
</defs>
</svg>